<?xml version="1.0" encoding="utf-8"?>
<!-- Generator: Adobe Illustrator 25.4.1, SVG Export Plug-In . SVG Version: 6.00 Build 0)  -->
<svg version="1.1" id="Capa_1" xmlns="http://www.w3.org/2000/svg" xmlns:xlink="http://www.w3.org/1999/xlink" x="0px" y="0px"
	 viewBox="0 0 24 24" style="enable-background:new 0 0 24 24;" xml:space="preserve">
<style type="text/css">
	.st0{fill:#FFFFFF;}
</style>
<path class="st0" d="M18.6,0.8H5.4c-2.6,0-4.7,2.1-4.7,4.7v13.1c0,2.6,2.1,4.7,4.7,4.7h13.1c2.6,0,4.7-2.1,4.7-4.7V5.4
	C23.2,2.9,21.1,0.8,18.6,0.8z M8.3,18.6H5.4V8.3h2.8V18.6z M6.8,7.1c-0.9,0-1.6-0.7-1.6-1.7s0.7-1.7,1.6-1.7s1.6,0.7,1.6,1.7
	S7.8,7.1,6.8,7.1z M19.5,18.6h-2.8v-5.3c0-3.2-3.7-2.9-3.7,0v5.3h-2.8V8.3h2.8v1.7c1.3-2.4,6.6-2.6,6.6,2.3V18.6z"/>
</svg>
